{
    "asset" : {
        "generator" : "Khronos glTF Blender I/O v3.2.43",
        "version" : "2.0"
    },
    "scene" : 0,
    "scenes" : [
        {
            "name" : "Scene",
            "nodes" : [
                0,
                1,
                2,
                3
            ]
        }
    ],
    "nodes" : [
        {
            "mesh" : 0,
            "name" : "Cube",
            "translation" : [
                0,
                0.9930483102798462,
                0
            ]
        },
        {
            "mesh" : 1,
            "name" : "Cube.001",
            "translation" : [
                0,
                1.8296387195587158,
                0
            ]
        },
        {
            "mesh" : 2,
            "name" : "Plane",
            "translation" : [
                0,
                1.9063359498977661,
                0
            ]
        },
        {
            "mesh" : 3,
            "name" : "Cube.002",
            "rotation" : [
                0,
                0,
                0.9999977350234985,
                0.002135827438905835
            ],
            "translation" : [
                0,
                1.932769775390625,
                0
            ]
        }
    ],
    "materials" : [
        {
            "doubleSided" : true,
            "name" : "bunmaterial",
            "pbrMetallicRoughness" : {
                "baseColorFactor" : [
                    0.906000018119812,
                    0.6288363933563232,
                    0.3261599540710449,
                    1
                ],
                "metallicFactor" : 0
            }
        },
        {
            "doubleSided" : true,
            "name" : "meat",
            "pbrMetallicRoughness" : {
                "baseColorFactor" : [
                    0.3343251645565033,
                    0.13067564368247986,
                    0.055134620517492294,
                    1
                ],
                "metallicFactor" : 0
            }
        },
        {
            "doubleSided" : true,
            "name" : "cheese",
            "pbrMetallicRoughness" : {
                "baseColorFactor" : [
                    0.8000000715255737,
                    0.514449954032898,
                    0.011276952922344208,
                    1
                ],
                "metallicFactor" : 0,
                "roughnessFactor" : 0.5
            }
        }
    ],
    "meshes" : [
        {
            "name" : "Mesh",
            "primitives" : [
                {
                    "attributes" : {
                        "POSITION" : 0,
                        "NORMAL" : 1
                    },
                    "indices" : 2,
                    "material" : 0
                }
            ]
        },
        {
            "name" : "Mesh",
            "primitives" : [
                {
                    "attributes" : {
                        "POSITION" : 3,
                        "NORMAL" : 4
                    },
                    "indices" : 2,
                    "material" : 1
                }
            ]
        },
        {
            "name" : "Plane",
            "primitives" : [
                {
                    "attributes" : {
                        "POSITION" : 5,
                        "NORMAL" : 6
                    },
                    "indices" : 7,
                    "material" : 2
                }
            ]
        },
        {
            "name" : "Mesh",
            "primitives" : [
                {
                    "attributes" : {
                        "POSITION" : 8,
                        "NORMAL" : 9
                    },
                    "indices" : 2,
                    "material" : 0
                }
            ]
        }
    ],
    "accessors" : [
        {
            "bufferView" : 0,
            "componentType" : 5126,
            "count" : 898,
            "max" : [
                4.583175182342529,
                0.03458644077181816,
                4.583176136016846
            ],
            "min" : [
                -4.5831756591796875,
                -0.9764907360076904,
                -4.583175182342529
            ],
            "type" : "VEC3"
        },
        {
            "bufferView" : 1,
            "componentType" : 5126,
            "count" : 898,
            "type" : "VEC3"
        },
        {
            "bufferView" : 2,
            "componentType" : 5123,
            "count" : 5376,
            "type" : "SCALAR"
        },
        {
            "bufferView" : 3,
            "componentType" : 5126,
            "count" : 898,
            "max" : [
                4.7650322914123535,
                0.04612795263528824,
                4.782806873321533
            ],
            "min" : [
                -4.765031337738037,
                -0.9923384785652161,
                -4.7483320236206055
            ],
            "type" : "VEC3"
        },
        {
            "bufferView" : 4,
            "componentType" : 5126,
            "count" : 898,
            "type" : "VEC3"
        },
        {
            "bufferView" : 5,
            "componentType" : 5126,
            "count" : 3932,
            "max" : [
                3.7187674045562744,
                0,
                3.7187674045562744
            ],
            "min" : [
                -3.7205100059509277,
                -0.5967881679534912,
                -3.7275304794311523
            ],
            "type" : "VEC3"
        },
        {
            "bufferView" : 6,
            "componentType" : 5126,
            "count" : 3932,
            "type" : "VEC3"
        },
        {
            "bufferView" : 7,
            "componentType" : 5123,
            "count" : 13056,
            "type" : "SCALAR"
        },
        {
            "bufferView" : 8,
            "componentType" : 5126,
            "count" : 898,
            "max" : [
                4.592933177947998,
                0.03196871280670166,
                4.675178050994873
            ],
            "min" : [
                -4.715671062469482,
                -1.7210237979888916,
                -4.683578014373779
            ],
            "type" : "VEC3"
        },
        {
            "bufferView" : 9,
            "componentType" : 5126,
            "count" : 898,
            "type" : "VEC3"
        }
    ],
    "bufferViews" : [
        {
            "buffer" : 0,
            "byteLength" : 10776,
            "byteOffset" : 0
        },
        {
            "buffer" : 0,
            "byteLength" : 10776,
            "byteOffset" : 10776
        },
        {
            "buffer" : 0,
            "byteLength" : 10752,
            "byteOffset" : 21552
        },
        {
            "buffer" : 0,
            "byteLength" : 10776,
            "byteOffset" : 32304
        },
        {
            "buffer" : 0,
            "byteLength" : 10776,
            "byteOffset" : 43080
        },
        {
            "buffer" : 0,
            "byteLength" : 47184,
            "byteOffset" : 53856
        },
        {
            "buffer" : 0,
            "byteLength" : 47184,
            "byteOffset" : 101040
        },
        {
            "buffer" : 0,
            "byteLength" : 26112,
            "byteOffset" : 148224
        },
        {
            "buffer" : 0,
            "byteLength" : 10776,
            "byteOffset" : 174336
        },
        {
            "buffer" : 0,
            "byteLength" : 10776,
            "byteOffset" : 185112
        }
    ],
    "buffers" : [
        {
            "byteLength" : 195888,
            "uri" : "data:application/octet-stream;base64,"
        }
    ]
}
