{
    "asset" : {
        "generator" : "Khronos glTF Blender I/O v3.2.43",
        "version" : "2.0"
    },
    "scene" : 0,
    "scenes" : [
        {
            "name" : "Scene",
            "nodes" : [
                0
            ]
        }
    ],
    "nodes" : [
        {
            "mesh" : 0,
            "name" : "keyboard object",
            "scale" : [
                3.7780344486236572,
                0.10585197806358337,
                1.212834358215332
            ],
            "translation" : [
                0.13365554809570312,
                -0.45415860414505005,
                -0.4705185890197754
            ]
        }
    ],
    "materials" : [
        {
            "doubleSided" : true,
            "name" : "Material.003",
            "pbrMetallicRoughness" : {
                "baseColorFactor" : [
                    1,
                    0.8821566700935364,
                    0.929126501083374,
                    1
                ],
                "metallicFactor" : 0.5340909361839294,
                "roughnessFactor" : 0
            }
        },
        {
            "doubleSided" : true,
            "name" : "Material",
            "pbrMetallicRoughness" : {
                "baseColorFactor" : [
                    0.8735552430152893,
                    0.7331313490867615,
                    0.6954140663146973,
                    1
                ],
                "metallicFactor" : 0,
                "metallicRoughnessTexture" : {
                    "index" : 0
                }
            }
        },
        {
            "doubleSided" : true,
            "name" : "Material.001",
            "pbrMetallicRoughness" : {
                "baseColorFactor" : [
                    0.5668376088142395,
                    0.17565372586250305,
                    0.28190115094184875,
                    1
                ],
                "metallicFactor" : 0,
                "roughnessFactor" : 0.5
            }
        },
        {
            "doubleSided" : true,
            "name" : "Material.006",
            "pbrMetallicRoughness" : {
                "baseColorFactor" : [
                    1,
                    0.4077020585536957,
                    0.5402953028678894,
                    1
                ],
                "metallicFactor" : 0,
                "roughnessFactor" : 0.5
            }
        },
        {
            "doubleSided" : true,
            "emissiveFactor" : [
                0,
                1,
                1
            ],
            "name" : "Material.002",
            "pbrMetallicRoughness" : {
                "baseColorFactor" : [
                    0,
                    0,
                    0,
                    1
                ]
            }
        }
    ],
    "meshes" : [
        {
            "name" : "Cube.022",
            "primitives" : [
                {
                    "attributes" : {
                        "POSITION" : 0,
                        "NORMAL" : 1,
                        "TEXCOORD_0" : 2
                    },
                    "indices" : 3,
                    "material" : 0
                },
                {
                    "attributes" : {
                        "POSITION" : 4,
                        "NORMAL" : 5,
                        "TEXCOORD_0" : 6
                    },
                    "indices" : 7,
                    "material" : 1
                },
                {
                    "attributes" : {
                        "POSITION" : 8,
                        "NORMAL" : 9,
                        "TEXCOORD_0" : 10
                    },
                    "indices" : 11,
                    "material" : 2
                },
                {
                    "attributes" : {
                        "POSITION" : 12,
                        "NORMAL" : 13,
                        "TEXCOORD_0" : 14
                    },
                    "indices" : 15,
                    "material" : 3
                },
                {
                    "attributes" : {
                        "POSITION" : 16,
                        "NORMAL" : 17,
                        "TEXCOORD_0" : 18
                    },
                    "indices" : 19,
                    "material" : 4
                }
            ]
        }
    ],
    "textures" : [
        {
            "sampler" : 0,
            "source" : 0
        }
    ],
    "images" : [
        {
            "bufferView" : 8,
            "mimeType" : "image/png",
            "name" : "Image"
        }
    ],
    "accessors" : [
        {
            "bufferView" : 0,
            "componentType" : 5126,
            "count" : 9560,
            "max" : [
                1,
                4.309534549713135,
                1
            ],
            "min" : [
                -1.004183053970337,
                -1.02079176902771,
                -1
            ],
            "type" : "VEC3"
        },
        {
            "bufferView" : 1,
            "componentType" : 5126,
            "count" : 9560,
            "type" : "VEC3"
        },
        {
            "bufferView" : 2,
            "componentType" : 5126,
            "count" : 9560,
            "type" : "VEC2"
        },
        {
            "bufferView" : 3,
            "componentType" : 5123,
            "count" : 22284,
            "type" : "SCALAR"
        },
        {
            "bufferView" : 4,
            "componentType" : 5126,
            "count" : 34938,
            "max" : [
                0.97894686460495,
                6.41585111618042,
                0.957059383392334
            ],
            "min" : [
                -0.9632435441017151,
                1.9804282188415527,
                -0.9663471579551697
            ],
            "type" : "VEC3"
        },
        {
            "bufferView" : 5,
            "componentType" : 5126,
            "count" : 34938,
            "type" : "VEC3"
        },
        {
            "bufferView" : 6,
            "componentType" : 5126,
            "count" : 34938,
            "type" : "VEC2"
        },
        {
            "bufferView" : 7,
            "componentType" : 5123,
            "count" : 176904,
            "type" : "SCALAR"
        },
        {
            "bufferView" : 9,
            "componentType" : 5126,
            "count" : 3882,
            "max" : [
                0.9729889631271362,
                6.116703510284424,
                0.5624070167541504
            ],
            "min" : [
                -0.9652154445648193,
                2.4342873096466064,
                -0.5698818564414978
            ],
            "type" : "VEC3"
        },
        {
            "bufferView" : 10,
            "componentType" : 5126,
            "count" : 3882,
            "type" : "VEC3"
        },
        {
            "bufferView" : 11,
            "componentType" : 5126,
            "count" : 3882,
            "type" : "VEC2"
        },
        {
            "bufferView" : 12,
            "componentType" : 5123,
            "count" : 19656,
            "type" : "SCALAR"
        },
        {
            "bufferView" : 13,
            "componentType" : 5126,
            "count" : 647,
            "max" : [
                0.3303397297859192,
                5.088708877563477,
                0.9570594429969788
            ],
            "min" : [
                -0.46304988861083984,
                1.9804282188415527,
                0.5920835137367249
            ],
            "type" : "VEC3"
        },
        {
            "bufferView" : 14,
            "componentType" : 5126,
            "count" : 647,
            "type" : "VEC3"
        },
        {
            "bufferView" : 15,
            "componentType" : 5126,
            "count" : 647,
            "type" : "VEC2"
        },
        {
            "bufferView" : 16,
            "componentType" : 5123,
            "count" : 3276,
            "type" : "SCALAR"
        },
        {
            "bufferView" : 17,
            "componentType" : 5126,
            "count" : 4,
            "max" : [
                0.975665271282196,
                3.18744158744812,
                0.888700544834137
            ],
            "min" : [
                -0.9714303612709045,
                2.0987908840179443,
                -0.9466724991798401
            ],
            "type" : "VEC3"
        },
        {
            "bufferView" : 18,
            "componentType" : 5126,
            "count" : 4,
            "type" : "VEC3"
        },
        {
            "bufferView" : 19,
            "componentType" : 5126,
            "count" : 4,
            "type" : "VEC2"
        },
        {
            "bufferView" : 20,
            "componentType" : 5123,
            "count" : 6,
            "type" : "SCALAR"
        }
    ],
    "bufferViews" : [
        {
            "buffer" : 0,
            "byteLength" : 114720,
            "byteOffset" : 0
        },
        {
            "buffer" : 0,
            "byteLength" : 114720,
            "byteOffset" : 114720
        },
        {
            "buffer" : 0,
            "byteLength" : 76480,
            "byteOffset" : 229440
        },
        {
            "buffer" : 0,
            "byteLength" : 44568,
            "byteOffset" : 305920
        },
        {
            "buffer" : 0,
            "byteLength" : 419256,
            "byteOffset" : 350488
        },
        {
            "buffer" : 0,
            "byteLength" : 419256,
            "byteOffset" : 769744
        },
        {
            "buffer" : 0,
            "byteLength" : 279504,
            "byteOffset" : 1189000
        },
        {
            "buffer" : 0,
            "byteLength" : 353808,
            "byteOffset" : 1468504
        },
        {
            "buffer" : 0,
            "byteLength" : 90,
            "byteOffset" : 1822312
        },
        {
            "buffer" : 0,
            "byteLength" : 46584,
            "byteOffset" : 1822404
        },
        {
            "buffer" : 0,
            "byteLength" : 46584,
            "byteOffset" : 1868988
        },
        {
            "buffer" : 0,
            "byteLength" : 31056,
            "byteOffset" : 1915572
        },
        {
            "buffer" : 0,
            "byteLength" : 39312,
            "byteOffset" : 1946628
        },
        {
            "buffer" : 0,
            "byteLength" : 7764,
            "byteOffset" : 1985940
        },
        {
            "buffer" : 0,
            "byteLength" : 7764,
            "byteOffset" : 1993704
        },
        {
            "buffer" : 0,
            "byteLength" : 5176,
            "byteOffset" : 2001468
        },
        {
            "buffer" : 0,
            "byteLength" : 6552,
            "byteOffset" : 2006644
        },
        {
            "buffer" : 0,
            "byteLength" : 48,
            "byteOffset" : 2013196
        },
        {
            "buffer" : 0,
            "byteLength" : 48,
            "byteOffset" : 2013244
        },
        {
            "buffer" : 0,
            "byteLength" : 32,
            "byteOffset" : 2013292
        },
        {
            "buffer" : 0,
            "byteLength" : 12,
            "byteOffset" : 2013324
        }
    ],
    "samplers" : [
        {
            "magFilter" : 9729,
            "minFilter" : 9987
        }
    ],
    "buffers" : [
        {
            "byteLength" : 2013336,
            "uri" : "data:application/octet-stream;base64,"
        }
    ]
}
