{
    "asset" : {
        "generator" : "Khronos glTF Blender I/O v3.2.43",
        "version" : "2.0"
    },
    "scene" : 0,
    "scenes" : [
        {
            "name" : "Scene",
            "nodes" : [
                0,
                1,
                2,
                3
            ]
        }
    ],
    "nodes" : [
        {
            "mesh" : 0,
            "name" : "Cube.035",
            "scale" : [
                6.263973236083984,
                3.4448347091674805,
                0.07844877243041992
            ],
            "translation" : [
                0.045659102499485016,
                4.022227764129639,
                -0.7001063823699951
            ]
        },
        {
            "mesh" : 1,
            "name" : "Cube.036",
            "scale" : [
                6.263973236083984,
                3.4448347091674805,
                0.07844877243041992
            ],
            "translation" : [
                0.045659102499485016,
                4.022227764129639,
                -0.7001063823699951
            ]
        },
        {
            "mesh" : 2,
            "name" : "Cube.037",
            "rotation" : [
                -0.33378008008003235,
                -0.33384984731674194,
                0.6232867240905762,
                0.6234170198440552
            ],
            "scale" : [
                4.6862030029296875,
                2.731821298599243,
                0.06221143156290054
            ],
            "translation" : [
                -12.393357276916504,
                5.006182670593262,
                -3.5725536346435547
            ]
        },
        {
            "mesh" : 3,
            "name" : "Cube.038",
            "rotation" : [
                -0.33378008008003235,
                -0.33384984731674194,
                0.6232867240905762,
                0.6234170198440552
            ],
            "scale" : [
                4.6862030029296875,
                2.731821298599243,
                0.06221143156290054
            ],
            "translation" : [
                -12.393357276916504,
                5.006182670593262,
                -3.5725536346435547
            ]
        }
    ],
    "materials" : [
        {
            "doubleSided" : true,
            "emissiveFactor" : [
                0.764803946018219,
                1,
                1
            ],
            "name" : "screen",
            "pbrMetallicRoughness" : {
                "baseColorFactor" : [
                    0,
                    0,
                    0,
                    1
                ]
            }
        },
        {
            "doubleSided" : true,
            "name" : "Material.006",
            "pbrMetallicRoughness" : {
                "baseColorFactor" : [
                    0.01738799922168255,
                    0.01738799922168255,
                    0.01738799922168255,
                    1
                ],
                "metallicFactor" : 0.9444440007209778,
                "roughnessFactor" : 0.24895906448364258
            }
        }
    ],
    "meshes" : [
        {
            "name" : "Cube.002",
            "primitives" : [
                {
                    "attributes" : {
                        "POSITION" : 0,
                        "NORMAL" : 1,
                        "TEXCOORD_0" : 2
                    },
                    "indices" : 3,
                    "material" : 0
                }
            ]
        },
        {
            "name" : "Cube.001",
            "primitives" : [
                {
                    "attributes" : {
                        "POSITION" : 4,
                        "NORMAL" : 5,
                        "TEXCOORD_0" : 6
                    },
                    "indices" : 7,
                    "material" : 1
                }
            ]
        },
        {
            "name" : "Cube.004",
            "primitives" : [
                {
                    "attributes" : {
                        "POSITION" : 8,
                        "NORMAL" : 9,
                        "TEXCOORD_0" : 10
                    },
                    "indices" : 7,
                    "material" : 1
                }
            ]
        },
        {
            "name" : "Cube.005",
            "primitives" : [
                {
                    "attributes" : {
                        "POSITION" : 11,
                        "NORMAL" : 12,
                        "TEXCOORD_0" : 13
                    },
                    "indices" : 3,
                    "material" : 0
                }
            ]
        }
    ],
    "accessors" : [
        {
            "bufferView" : 0,
            "componentType" : 5126,
            "count" : 4,
            "max" : [
                0.962654709815979,
                0.962654709815979,
                0.646881103515625
            ],
            "min" : [
                -0.962654709815979,
                -0.962654709815979,
                0.646881103515625
            ],
            "type" : "VEC3"
        },
        {
            "bufferView" : 1,
            "componentType" : 5126,
            "count" : 4,
            "type" : "VEC3"
        },
        {
            "bufferView" : 2,
            "componentType" : 5126,
            "count" : 4,
            "type" : "VEC2"
        },
        {
            "bufferView" : 3,
            "componentType" : 5123,
            "count" : 6,
            "type" : "SCALAR"
        },
        {
            "bufferView" : 4,
            "componentType" : 5126,
            "count" : 52,
            "max" : [
                0.9930483102798462,
                0.9930483102798462,
                0.9930483102798462
            ],
            "min" : [
                -0.9930483102798462,
                -0.9930483102798462,
                -0.9930483102798462
            ],
            "type" : "VEC3"
        },
        {
            "bufferView" : 5,
            "componentType" : 5126,
            "count" : 52,
            "type" : "VEC3"
        },
        {
            "bufferView" : 6,
            "componentType" : 5126,
            "count" : 52,
            "type" : "VEC2"
        },
        {
            "bufferView" : 7,
            "componentType" : 5123,
            "count" : 78,
            "type" : "SCALAR"
        },
        {
            "bufferView" : 8,
            "componentType" : 5126,
            "count" : 52,
            "max" : [
                0.9930483102798462,
                0.9930483102798462,
                0.9930483102798462
            ],
            "min" : [
                -0.9930483102798462,
                -0.9930483102798462,
                -0.9930483102798462
            ],
            "type" : "VEC3"
        },
        {
            "bufferView" : 9,
            "componentType" : 5126,
            "count" : 52,
            "type" : "VEC3"
        },
        {
            "bufferView" : 10,
            "componentType" : 5126,
            "count" : 52,
            "type" : "VEC2"
        },
        {
            "bufferView" : 11,
            "componentType" : 5126,
            "count" : 4,
            "max" : [
                0.962654709815979,
                0.962654709815979,
                0.646881103515625
            ],
            "min" : [
                -0.962654709815979,
                -0.962654709815979,
                0.646881103515625
            ],
            "type" : "VEC3"
        },
        {
            "bufferView" : 12,
            "componentType" : 5126,
            "count" : 4,
            "type" : "VEC3"
        },
        {
            "bufferView" : 13,
            "componentType" : 5126,
            "count" : 4,
            "type" : "VEC2"
        }
    ],
    "bufferViews" : [
        {
            "buffer" : 0,
            "byteLength" : 48,
            "byteOffset" : 0
        },
        {
            "buffer" : 0,
            "byteLength" : 48,
            "byteOffset" : 48
        },
        {
            "buffer" : 0,
            "byteLength" : 32,
            "byteOffset" : 96
        },
        {
            "buffer" : 0,
            "byteLength" : 12,
            "byteOffset" : 128
        },
        {
            "buffer" : 0,
            "byteLength" : 624,
            "byteOffset" : 140
        },
        {
            "buffer" : 0,
            "byteLength" : 624,
            "byteOffset" : 764
        },
        {
            "buffer" : 0,
            "byteLength" : 416,
            "byteOffset" : 1388
        },
        {
            "buffer" : 0,
            "byteLength" : 156,
            "byteOffset" : 1804
        },
        {
            "buffer" : 0,
            "byteLength" : 624,
            "byteOffset" : 1960
        },
        {
            "buffer" : 0,
            "byteLength" : 624,
            "byteOffset" : 2584
        },
        {
            "buffer" : 0,
            "byteLength" : 416,
            "byteOffset" : 3208
        },
        {
            "buffer" : 0,
            "byteLength" : 48,
            "byteOffset" : 3624
        },
        {
            "buffer" : 0,
            "byteLength" : 48,
            "byteOffset" : 3672
        },
        {
            "buffer" : 0,
            "byteLength" : 32,
            "byteOffset" : 3720
        }
    ],
    "buffers" : [
        {
            "byteLength" : 3752,
            "uri" : "data:application/octet-stream;base64,"
        }
    ]
}
