{
    "asset" : {
        "generator" : "Khronos glTF Blender I/O v3.2.43",
        "version" : "2.0"
    },
    "scene" : 0,
    "scenes" : [
        {
            "name" : "Scene",
            "nodes" : [
                0
            ]
        }
    ],
    "nodes" : [
        {
            "mesh" : 0,
            "name" : "Imac_Mouse",
            "rotation" : [
                0.7071068286895752,
                0,
                0,
                0.7071067094802856
            ],
            "scale" : [
                0.0031586152035743,
                0.0031586152035743,
                0.0031586152035743
            ]
        }
    ],
    "materials" : [
        {
            "doubleSided" : true,
            "name" : "plastic black",
            "pbrMetallicRoughness" : {
                "baseColorFactor" : [
                    0.800000011920929,
                    0.800000011920929,
                    0.800000011920929,
                    1
                ],
                "metallicFactor" : 0,
                "roughnessFactor" : 0.5
            }
        },
        {
            "doubleSided" : true,
            "name" : "switch top",
            "pbrMetallicRoughness" : {
                "baseColorFactor" : [
                    0.800000011920929,
                    0.800000011920929,
                    0.800000011920929,
                    1
                ],
                "metallicFactor" : 0,
                "roughnessFactor" : 0.5
            }
        },
        {
            "doubleSided" : true,
            "name" : "plastic green",
            "pbrMetallicRoughness" : {
                "baseColorFactor" : [
                    0.800000011920929,
                    0.800000011920929,
                    0.800000011920929,
                    1
                ],
                "metallicFactor" : 0,
                "roughnessFactor" : 0.5
            }
        },
        {
            "doubleSided" : true,
            "name" : "chrome",
            "pbrMetallicRoughness" : {
                "baseColorFactor" : [
                    0.800000011920929,
                    0.800000011920929,
                    0.800000011920929,
                    1
                ],
                "metallicFactor" : 0,
                "roughnessFactor" : 0.5
            }
        },
        {
            "doubleSided" : true,
            "name" : "aluminium",
            "pbrMetallicRoughness" : {
                "baseColorFactor" : [
                    0.800000011920929,
                    0.800000011920929,
                    0.800000011920929,
                    1
                ],
                "metallicFactor" : 0,
                "roughnessFactor" : 0.5
            }
        },
        {
            "doubleSided" : true,
            "name" : "sensor",
            "pbrMetallicRoughness" : {
                "baseColorFactor" : [
                    0.800000011920929,
                    0.800000011920929,
                    0.800000011920929,
                    1
                ],
                "metallicFactor" : 0,
                "roughnessFactor" : 0.5
            }
        },
        {
            "doubleSided" : true,
            "name" : "plastic top",
            "pbrMetallicRoughness" : {
                "baseColorFactor" : [
                    0.800000011920929,
                    0.800000011920929,
                    0.800000011920929,
                    1
                ],
                "metallicFactor" : 0,
                "roughnessFactor" : 0.5
            }
        },
        {
            "doubleSided" : true,
            "name" : "glass edges",
            "pbrMetallicRoughness" : {
                "baseColorFactor" : [
                    0.800000011920929,
                    0.800000011920929,
                    0.800000011920929,
                    1
                ],
                "metallicFactor" : 0,
                "roughnessFactor" : 0.5
            }
        },
        {
            "doubleSided" : true,
            "name" : "glass top",
            "pbrMetallicRoughness" : {
                "baseColorFactor" : [
                    0.800000011920929,
                    0.800000011920929,
                    0.800000011920929,
                    1
                ],
                "metallicFactor" : 0,
                "roughnessFactor" : 0.5
            }
        }
    ],
    "meshes" : [
        {
            "name" : "Imac_Mouse",
            "primitives" : [
                {
                    "attributes" : {
                        "POSITION" : 0,
                        "NORMAL" : 1,
                        "TEXCOORD_0" : 2
                    },
                    "indices" : 3,
                    "material" : 0
                },
                {
                    "attributes" : {
                        "POSITION" : 4,
                        "NORMAL" : 5,
                        "TEXCOORD_0" : 6
                    },
                    "indices" : 7,
                    "material" : 1
                },
                {
                    "attributes" : {
                        "POSITION" : 8,
                        "NORMAL" : 9,
                        "TEXCOORD_0" : 10
                    },
                    "indices" : 11,
                    "material" : 2
                },
                {
                    "attributes" : {
                        "POSITION" : 12,
                        "NORMAL" : 13,
                        "TEXCOORD_0" : 14
                    },
                    "indices" : 15,
                    "material" : 3
                },
                {
                    "attributes" : {
                        "POSITION" : 16,
                        "NORMAL" : 17,
                        "TEXCOORD_0" : 18
                    },
                    "indices" : 19,
                    "material" : 4
                },
                {
                    "attributes" : {
                        "POSITION" : 20,
                        "NORMAL" : 21,
                        "TEXCOORD_0" : 22
                    },
                    "indices" : 23,
                    "material" : 5
                },
                {
                    "attributes" : {
                        "POSITION" : 24,
                        "NORMAL" : 25,
                        "TEXCOORD_0" : 26
                    },
                    "indices" : 27,
                    "material" : 6
                },
                {
                    "attributes" : {
                        "POSITION" : 28,
                        "NORMAL" : 29,
                        "TEXCOORD_0" : 30
                    },
                    "indices" : 31,
                    "material" : 7
                },
                {
                    "attributes" : {
                        "POSITION" : 32,
                        "NORMAL" : 33,
                        "TEXCOORD_0" : 34
                    },
                    "indices" : 35,
                    "material" : 8
                }
            ]
        }
    ],
    "accessors" : [
        {
            "bufferView" : 0,
            "componentType" : 5126,
            "count" : 1220,
            "max" : [
                265.8249206542969,
                549.0767822265625,
                4.76837158203125e-05
            ],
            "min" : [
                -265.8249206542969,
                -549.0761108398438,
                -159.29197692871094
            ],
            "type" : "VEC3"
        },
        {
            "bufferView" : 1,
            "componentType" : 5126,
            "count" : 1220,
            "type" : "VEC3"
        },
        {
            "bufferView" : 2,
            "componentType" : 5126,
            "count" : 1220,
            "type" : "VEC2"
        },
        {
            "bufferView" : 3,
            "componentType" : 5123,
            "count" : 5142,
            "type" : "SCALAR"
        },
        {
            "bufferView" : 4,
            "componentType" : 5126,
            "count" : 128,
            "max" : [
                -71.53968048095703,
                -337.10760498046875,
                -0.901787281036377
            ],
            "min" : [
                -98.26644134521484,
                -363.88427734375,
                -2.925553321838379
            ],
            "type" : "VEC3"
        },
        {
            "bufferView" : 5,
            "componentType" : 5126,
            "count" : 128,
            "type" : "VEC3"
        },
        {
            "bufferView" : 6,
            "componentType" : 5126,
            "count" : 128,
            "type" : "VEC2"
        },
        {
            "bufferView" : 7,
            "componentType" : 5123,
            "count" : 666,
            "type" : "SCALAR"
        },
        {
            "bufferView" : 8,
            "componentType" : 5126,
            "count" : 4,
            "max" : [
                -65.102294921875,
                -303.6270446777344,
                -18.862834930419922
            ],
            "min" : [
                -102.3578872680664,
                -369.2025451660156,
                -21.16168212890625
            ],
            "type" : "VEC3"
        },
        {
            "bufferView" : 9,
            "componentType" : 5126,
            "count" : 4,
            "type" : "VEC3"
        },
        {
            "bufferView" : 10,
            "componentType" : 5126,
            "count" : 4,
            "type" : "VEC2"
        },
        {
            "bufferView" : 11,
            "componentType" : 5123,
            "count" : 6,
            "type" : "SCALAR"
        },
        {
            "bufferView" : 12,
            "componentType" : 5126,
            "count" : 128,
            "max" : [
                -70.2990951538086,
                -336.9959411621094,
                -1.2908744812011719
            ],
            "min" : [
                -98.34396362304688,
                -363.9959411621094,
                -21.393692016601562
            ],
            "type" : "VEC3"
        },
        {
            "bufferView" : 13,
            "componentType" : 5126,
            "count" : 128,
            "type" : "VEC3"
        },
        {
            "bufferView" : 14,
            "componentType" : 5126,
            "count" : 128,
            "type" : "VEC2"
        },
        {
            "bufferView" : 15,
            "componentType" : 5123,
            "count" : 576,
            "type" : "SCALAR"
        },
        {
            "bufferView" : 16,
            "componentType" : 5126,
            "count" : 6100,
            "max" : [
                285.18603515625,
                558.5518798828125,
                -1.2792658805847168
            ],
            "min" : [
                -285.18603515625,
                -558.5518798828125,
                -150.98216247558594
            ],
            "type" : "VEC3"
        },
        {
            "bufferView" : 17,
            "componentType" : 5126,
            "count" : 6100,
            "type" : "VEC3"
        },
        {
            "bufferView" : 18,
            "componentType" : 5126,
            "count" : 6100,
            "type" : "VEC2"
        },
        {
            "bufferView" : 19,
            "componentType" : 5123,
            "count" : 31770,
            "type" : "SCALAR"
        },
        {
            "bufferView" : 20,
            "componentType" : 5126,
            "count" : 494,
            "max" : [
                41.48564529418945,
                -294.6113586425781,
                -5.816082954406738
            ],
            "min" : [
                -41.91066360473633,
                -382.20672607421875,
                -61.86515808105469
            ],
            "type" : "VEC3"
        },
        {
            "bufferView" : 21,
            "componentType" : 5126,
            "count" : 494,
            "type" : "VEC3"
        },
        {
            "bufferView" : 22,
            "componentType" : 5126,
            "count" : 494,
            "type" : "VEC2"
        },
        {
            "bufferView" : 23,
            "componentType" : 5123,
            "count" : 2100,
            "type" : "SCALAR"
        },
        {
            "bufferView" : 24,
            "componentType" : 5126,
            "count" : 2461,
            "max" : [
                287.15789794921875,
                563.8834228515625,
                -38.612850189208984
            ],
            "min" : [
                -287.1578369140625,
                -563.8834228515625,
                -200.6885528564453
            ],
            "type" : "VEC3"
        },
        {
            "bufferView" : 25,
            "componentType" : 5126,
            "count" : 2461,
            "type" : "VEC3"
        },
        {
            "bufferView" : 26,
            "componentType" : 5126,
            "count" : 2461,
            "type" : "VEC2"
        },
        {
            "bufferView" : 27,
            "componentType" : 5123,
            "count" : 14088,
            "type" : "SCALAR"
        },
        {
            "bufferView" : 28,
            "componentType" : 5126,
            "count" : 1008,
            "max" : [
                289.8802185058594,
                574.6626586914062,
                -38.612850189208984
            ],
            "min" : [
                -289.8801574707031,
                -574.6626586914062,
                -180.5132293701172
            ],
            "type" : "VEC3"
        },
        {
            "bufferView" : 29,
            "componentType" : 5126,
            "count" : 1008,
            "type" : "VEC3"
        },
        {
            "bufferView" : 30,
            "componentType" : 5126,
            "count" : 1008,
            "type" : "VEC2"
        },
        {
            "bufferView" : 31,
            "componentType" : 5123,
            "count" : 5040,
            "type" : "SCALAR"
        },
        {
            "bufferView" : 32,
            "componentType" : 5126,
            "count" : 2433,
            "max" : [
                289.7260437011719,
                574.6626586914062,
                -56.994720458984375
            ],
            "min" : [
                -289.7259521484375,
                -574.6626586914062,
                -223.18325805664062
            ],
            "type" : "VEC3"
        },
        {
            "bufferView" : 33,
            "componentType" : 5126,
            "count" : 2433,
            "type" : "VEC3"
        },
        {
            "bufferView" : 34,
            "componentType" : 5126,
            "count" : 2433,
            "type" : "VEC2"
        },
        {
            "bufferView" : 35,
            "componentType" : 5123,
            "count" : 14088,
            "type" : "SCALAR"
        }
    ],
    "bufferViews" : [
        {
            "buffer" : 0,
            "byteLength" : 14640,
            "byteOffset" : 0
        },
        {
            "buffer" : 0,
            "byteLength" : 14640,
            "byteOffset" : 14640
        },
        {
            "buffer" : 0,
            "byteLength" : 9760,
            "byteOffset" : 29280
        },
        {
            "buffer" : 0,
            "byteLength" : 10284,
            "byteOffset" : 39040
        },
        {
            "buffer" : 0,
            "byteLength" : 1536,
            "byteOffset" : 49324
        },
        {
            "buffer" : 0,
            "byteLength" : 1536,
            "byteOffset" : 50860
        },
        {
            "buffer" : 0,
            "byteLength" : 1024,
            "byteOffset" : 52396
        },
        {
            "buffer" : 0,
            "byteLength" : 1332,
            "byteOffset" : 53420
        },
        {
            "buffer" : 0,
            "byteLength" : 48,
            "byteOffset" : 54752
        },
        {
            "buffer" : 0,
            "byteLength" : 48,
            "byteOffset" : 54800
        },
        {
            "buffer" : 0,
            "byteLength" : 32,
            "byteOffset" : 54848
        },
        {
            "buffer" : 0,
            "byteLength" : 12,
            "byteOffset" : 54880
        },
        {
            "buffer" : 0,
            "byteLength" : 1536,
            "byteOffset" : 54892
        },
        {
            "buffer" : 0,
            "byteLength" : 1536,
            "byteOffset" : 56428
        },
        {
            "buffer" : 0,
            "byteLength" : 1024,
            "byteOffset" : 57964
        },
        {
            "buffer" : 0,
            "byteLength" : 1152,
            "byteOffset" : 58988
        },
        {
            "buffer" : 0,
            "byteLength" : 73200,
            "byteOffset" : 60140
        },
        {
            "buffer" : 0,
            "byteLength" : 73200,
            "byteOffset" : 133340
        },
        {
            "buffer" : 0,
            "byteLength" : 48800,
            "byteOffset" : 206540
        },
        {
            "buffer" : 0,
            "byteLength" : 63540,
            "byteOffset" : 255340
        },
        {
            "buffer" : 0,
            "byteLength" : 5928,
            "byteOffset" : 318880
        },
        {
            "buffer" : 0,
            "byteLength" : 5928,
            "byteOffset" : 324808
        },
        {
            "buffer" : 0,
            "byteLength" : 3952,
            "byteOffset" : 330736
        },
        {
            "buffer" : 0,
            "byteLength" : 4200,
            "byteOffset" : 334688
        },
        {
            "buffer" : 0,
            "byteLength" : 29532,
            "byteOffset" : 338888
        },
        {
            "buffer" : 0,
            "byteLength" : 29532,
            "byteOffset" : 368420
        },
        {
            "buffer" : 0,
            "byteLength" : 19688,
            "byteOffset" : 397952
        },
        {
            "buffer" : 0,
            "byteLength" : 28176,
            "byteOffset" : 417640
        },
        {
            "buffer" : 0,
            "byteLength" : 12096,
            "byteOffset" : 445816
        },
        {
            "buffer" : 0,
            "byteLength" : 12096,
            "byteOffset" : 457912
        },
        {
            "buffer" : 0,
            "byteLength" : 8064,
            "byteOffset" : 470008
        },
        {
            "buffer" : 0,
            "byteLength" : 10080,
            "byteOffset" : 478072
        },
        {
            "buffer" : 0,
            "byteLength" : 29196,
            "byteOffset" : 488152
        },
        {
            "buffer" : 0,
            "byteLength" : 29196,
            "byteOffset" : 517348
        },
        {
            "buffer" : 0,
            "byteLength" : 19464,
            "byteOffset" : 546544
        },
        {
            "buffer" : 0,
            "byteLength" : 28176,
            "byteOffset" : 566008
        }
    ],
    "buffers" : [
        {
            "byteLength" : 594184,
            "uri" : "data:application/octet-stream;base64,"
        }
    ]
}
