{
    "asset" : {
        "generator" : "Khronos glTF Blender I/O v3.2.43",
        "version" : "2.0"
    },
    "scene" : 0,
    "scenes" : [
        {
            "name" : "Scene",
            "nodes" : [
                0
            ]
        }
    ],
    "nodes" : [
        {
            "mesh" : 0,
            "name" : "Cube.035",
            "rotation" : [
                -0.5,
                -0.5,
                -0.5,
                0.5
            ]
        }
    ],
    "materials" : [
        {
            "doubleSided" : true,
            "name" : "postit",
            "pbrMetallicRoughness" : {
                "baseColorFactor" : [
                    0.8000000715255737,
                    0.7484087944030762,
                    0.051925309002399445,
                    1
                ],
                "metallicFactor" : 0,
                "roughnessFactor" : 0.5
            }
        }
    ],
    "meshes" : [
        {
            "name" : "Cube.050",
            "primitives" : [
                {
                    "attributes" : {
                        "POSITION" : 0,
                        "NORMAL" : 1,
                        "TEXCOORD_0" : 2
                    },
                    "indices" : 3,
                    "material" : 0
                }
            ]
        }
    ],
    "accessors" : [
        {
            "bufferView" : 0,
            "componentType" : 5126,
            "count" : 740,
            "max" : [
                0.9930483102798462,
                0.351298987865448,
                0.9930483102798462
            ],
            "min" : [
                -0.9930483102798462,
                -0.0394672155380249,
                -0.9930483102798462
            ],
            "type" : "VEC3"
        },
        {
            "bufferView" : 1,
            "componentType" : 5126,
            "count" : 740,
            "type" : "VEC3"
        },
        {
            "bufferView" : 2,
            "componentType" : 5126,
            "count" : 740,
            "type" : "VEC2"
        },
        {
            "bufferView" : 3,
            "componentType" : 5123,
            "count" : 1134,
            "type" : "SCALAR"
        }
    ],
    "bufferViews" : [
        {
            "buffer" : 0,
            "byteLength" : 8880,
            "byteOffset" : 0
        },
        {
            "buffer" : 0,
            "byteLength" : 8880,
            "byteOffset" : 8880
        },
        {
            "buffer" : 0,
            "byteLength" : 5920,
            "byteOffset" : 17760
        },
        {
            "buffer" : 0,
            "byteLength" : 2268,
            "byteOffset" : 23680
        }
    ],
    "buffers" : [
        {
            "byteLength" : 25948,
            "uri" : "data:application/octet-stream;base64,"
        }
    ]
}
