{
    "asset" : {
        "generator" : "Khronos glTF Blender I/O v3.2.43",
        "version" : "2.0"
    },
    "scene" : 0,
    "scenes" : [
        {
            "name" : "Scene",
            "nodes" : [
                0
            ]
        }
    ],
    "nodes" : [
        {
            "mesh" : 0,
            "name" : "Cylinder.010",
            "rotation" : [
                0.7071068286895752,
                0,
                0,
                0.7071067094802856
            ],
            "scale" : [
                0.9499568939208984,
                0.9499568343162537,
                0.9499568343162537
            ],
            "translation" : [
                0,
                -0.5983544588088989,
                0
            ]
        }
    ],
    "materials" : [
        {
            "doubleSided" : true,
            "name" : "Material.004",
            "pbrMetallicRoughness" : {
                "baseColorFactor" : [
                    0.800000011920929,
                    0.800000011920929,
                    0.800000011920929,
                    1
                ],
                "roughnessFactor" : 0.24307183921337128
            }
        },
        {
            "doubleSided" : true,
            "name" : "Material.005",
            "pbrMetallicRoughness" : {
                "metallicFactor" : 0,
                "roughnessFactor" : 0.525658369064331
            }
        }
    ],
    "meshes" : [
        {
            "name" : "Cylinder.010",
            "primitives" : [
                {
                    "attributes" : {
                        "POSITION" : 0,
                        "NORMAL" : 1,
                        "TEXCOORD_0" : 2
                    },
                    "indices" : 3,
                    "material" : 0
                },
                {
                    "attributes" : {
                        "POSITION" : 4,
                        "NORMAL" : 5,
                        "TEXCOORD_0" : 6
                    },
                    "indices" : 7,
                    "material" : 1
                }
            ]
        }
    ],
    "accessors" : [
        {
            "bufferView" : 0,
            "componentType" : 5126,
            "count" : 61959,
            "max" : [
                0.36988565325737,
                0.36988565325737,
                -0.024613695219159126
            ],
            "min" : [
                -0.36988565325737,
                -0.36988565325737,
                -1.4431871175765991
            ],
            "type" : "VEC3"
        },
        {
            "bufferView" : 1,
            "componentType" : 5126,
            "count" : 61959,
            "type" : "VEC3"
        },
        {
            "bufferView" : 2,
            "componentType" : 5126,
            "count" : 61959,
            "type" : "VEC2"
        },
        {
            "bufferView" : 3,
            "componentType" : 5123,
            "count" : 93696,
            "type" : "SCALAR"
        },
        {
            "bufferView" : 4,
            "componentType" : 5126,
            "count" : 11631,
            "max" : [
                0.3718528747558594,
                0.3718528747558594,
                -0.11101386696100235
            ],
            "min" : [
                -0.3718528747558594,
                -0.3718528747558594,
                -1.403984546661377
            ],
            "type" : "VEC3"
        },
        {
            "bufferView" : 5,
            "componentType" : 5126,
            "count" : 11631,
            "type" : "VEC3"
        },
        {
            "bufferView" : 6,
            "componentType" : 5126,
            "count" : 11631,
            "type" : "VEC2"
        },
        {
            "bufferView" : 7,
            "componentType" : 5123,
            "count" : 18432,
            "type" : "SCALAR"
        }
    ],
    "bufferViews" : [
        {
            "buffer" : 0,
            "byteLength" : 743508,
            "byteOffset" : 0
        },
        {
            "buffer" : 0,
            "byteLength" : 743508,
            "byteOffset" : 743508
        },
        {
            "buffer" : 0,
            "byteLength" : 495672,
            "byteOffset" : 1487016
        },
        {
            "buffer" : 0,
            "byteLength" : 187392,
            "byteOffset" : 1982688
        },
        {
            "buffer" : 0,
            "byteLength" : 139572,
            "byteOffset" : 2170080
        },
        {
            "buffer" : 0,
            "byteLength" : 139572,
            "byteOffset" : 2309652
        },
        {
            "buffer" : 0,
            "byteLength" : 93048,
            "byteOffset" : 2449224
        },
        {
            "buffer" : 0,
            "byteLength" : 36864,
            "byteOffset" : 2542272
        }
    ],
    "buffers" : [
        {
            "byteLength" : 2579136,
            "uri" : "data:application/octet-stream;base64,"
        }
    ]
}
